<?xml version="1.0" encoding="UTF-8"?>
<svg id="Layer_2" data-name="Layer 2" xmlns="http://www.w3.org/2000/svg" viewBox="0 0 672.32 672.32">
  <defs>
    <style>
      .cls-1 {
        fill: none;
        stroke: #6d6d6d;
        stroke-miterlimit: 10;
        stroke-width: 3px;
      }

      .cls-2 {
        fill: #6d6d6d;
      }
    </style>
  </defs>
  <g id="Layer_2-2" data-name="Layer 2">
    <!-- <circle class="cls-1" cx="336.16" cy="336.16" r="334.66"/> -->
    <path class="cls-2" d="M123.69,218.97s4.15-11.85,19.56-11.26,389.93-.02,389.93-.02c0,0,13.63-.57,14.81,11.28-69.43,40.25-138.85,80.5-208.28,120.74-.72.4-1.57.72-2.54.81,0,0-1.44.13-2.94-.45-2.98-1.15-170.16-97.76-210.54-121.1Z"/>
    <path class="cls-2" d="M123.69,230.82v213.33s-1.19,17.33,5.48,12.44,147.56-139.11,147.56-139.11l-153.04-86.67Z"/>
    <path class="cls-2" d="M547.91,230.82v213.33s1.19,17.33-5.48,12.44c-6.67-4.89-147.56-139.11-147.56-139.11l153.04-86.67Z"/>
    <path class="cls-2" d="M284.73,321.48c8.79,5.05,17.57,10.11,26.36,15.16,2.57,1.5,6.17,3.57,10.53,5.95,10.05,5.48,12.19,6.1,14.67,6,2.32-.09,5.33-1.55,11.26-4.45,5.64-2.77,9.72-5.15,10.22-5.44,10.85-6.35,16.27-9.53,28.75-17.22h0l149.33,142.22H136.73l148-142.22Z"/>
  </g>
</svg>